<?xml version="1.0" standalone="no"?>
<!DOCTYPE svg PUBLIC "-//W3C//DTD SVG 20010904//EN"
 "http://www.w3.org/TR/2001/REC-SVG-20010904/DTD/svg10.dtd">
<svg version="1.0" xmlns="http://www.w3.org/2000/svg"
 width="289.000000pt" height="289.000000pt" viewBox="0 0 289.000000 289.000000"
 preserveAspectRatio="xMidYMid meet">
<metadata>
Created by potrace 1.11, written by Peter Selinger 2001-2013
</metadata>
<g transform="translate(0.000000,289.000000) scale(0.100000,-0.100000)"
fill="#000000" stroke="none">
<path d="M1924 2676 l-70 -71 2 -300 c1 -165 2 -302 3 -305 0 -3 199 -5 441
-5 l440 0 72 72 73 73 -1 293 c0 162 -4 298 -7 304 -4 7 -161 10 -444 10
l-438 1 -71 -72z"/>
<path d="M998 2495 c-2 -2 -23 -6 -48 -10 -101 -14 -216 -59 -265 -102 -11
-10 -31 -33 -44 -52 -23 -32 -25 -42 -26 -198 -1 -158 0 -163 20 -164 11 0
139 -1 285 -2 l265 -2 3 -37 3 -38 -435 0 c-421 0 -437 -1 -493 -22 -162 -60
-252 -239 -256 -508 -1 -69 2 -154 6 -190 21 -196 99 -342 213 -400 43 -22 64
-25 182 -28 72 -2 132 0 132 5 0 4 2 87 4 183 2 96 9 192 15 212 17 55 71 129
116 160 74 51 118 56 491 56 316 1 344 2 393 21 111 42 173 111 190 212 6 30
9 194 8 364 l-2 310 -25 39 c-13 22 -38 52 -55 68 -29 27 -111 73 -118 66 -2
-2 -10 2 -18 9 -33 27 -174 46 -356 49 -100 1 -183 1 -185 -1z m-82 -195 c58
-32 62 -132 6 -167 -39 -24 -77 -24 -112 -1 -109 74 -10 230 106 168z"/>
<path d="M1835 1900 c-2 -3 -4 -80 -4 -170 -1 -179 -9 -226 -56 -305 -14 -25
-45 -59 -67 -76 -76 -55 -107 -58 -477 -59 -411 -1 -447 -8 -539 -99 -71 -71
-76 -98 -76 -471 0 -312 1 -327 21 -366 72 -136 259 -207 553 -207 297 -1 489
64 551 185 18 35 20 56 18 194 l-2 153 -266 0 c-146 0 -276 0 -287 0 -19 1
-22 6 -19 39 l2 37 416 1 c229 1 435 4 457 8 79 13 170 74 214 146 73 117 96
229 91 440 -1 80 -6 161 -10 180 -26 136 -89 262 -156 312 -73 55 -96 61 -232
62 -70 1 -130 0 -132 -4z m-254 -1399 c42 -43 41 -101 -3 -142 -36 -32 -62
-36 -112 -15 -40 17 -61 61 -52 110 14 76 111 103 167 47z"/>
</g>
</svg>
